<svg xmlns="http://www.w3.org/2000/svg" version="1.1" xmlns:xlink="http://www.w3.org/1999/xlink" xmlns:svgjs="http://svgjs.dev/svgjs" width="2000" height="1900" viewBox="0 0 2000 1900"><g transform="matrix(1,0,0,1,1.8166436360014586,0.7692307692307168)"><svg viewBox="0 0 260 247" data-background-color="#28353b" preserveAspectRatio="xMidYMid meet" height="1900" width="2000" xmlns="http://www.w3.org/2000/svg" xmlns:xlink="http://www.w3.org/1999/xlink"><defs></defs><g id="tight-bounds" transform="matrix(1,0,0,1,-0.2361636726801919,-0.09999999999999432)"><svg viewBox="0 0 260.4723273453604 247.2" height="247.2" width="260.4723273453604"><g><svg viewBox="0 0 395.52 375.3663392824195" height="247.2" width="260.4723273453604"><g transform="matrix(1,0,0,1,0,257.8501701175224)"><svg viewBox="0 0 395.52 117.5161691648971" height="117.5161691648971" width="395.52"><g><svg viewBox="0 0 395.52 117.5161691648971" height="117.5161691648971" width="395.52"><g><svg viewBox="0 0 395.52 65.82668554095044" height="65.82668554095044" width="395.52"><g transform="matrix(1,0,0,1,0,0)"><svg width="395.52" viewBox="1 -40.25 247.24 41.15" height="65.82668554095044" data-palette-color="#e9ecfc"><path d="M22.85-19.65Q25.1-19.65 26.4-21.5 27.7-23.35 27.7-26.6L27.7-26.6Q27.7-30.1 26.03-32.33 24.35-34.55 21.1-34.55L21.1-34.55Q19.15-34.55 17.45-33.4L17.45-33.4 17.45-5.75 26.7-4 24.7 0 2 0 2-3.55 6.7-7.25 6.7-33.6 1-35.3 3-39.3 12.8-39.3Q17-39.3 21.1-39.6L21.1-39.6Q24.1-39.8 25.5-39.8L25.5-39.8Q29.6-39.8 32.77-38.25 35.95-36.7 37.7-34 39.45-31.3 39.45-28L39.45-28Q39.45-24.4 36.58-21.18 33.7-17.95 29.33-16.13 24.95-14.3 20.9-14.5L20.9-14.5 18.8-15.7 20.8-19.7 22.85-19.7 22.85-19.65ZM82.1-4L80.1 0 59.4 0 59.4-3.55 65.35-6.65 62.8-12.95 48.2-12.95 46.15-7.85 53.15-4 51.15 0 34.45 0 34.45-3.55 40.3-7.9 52.3-37.7 63-40.25 76.9-6.35 82.1-4ZM60.85-17.7L55.4-31.1 50.05-17.7 60.85-17.7ZM120.3 0.9L116.15 0 83.6 0 83.6-3.55 88.3-7.25 88.3-33.75 82.6-35.3 84.6-39.3 115.65-39.3 119.8-40.2 119.8-26.7 116.3-25.2 110-34.55 99.05-34.55 99.05-22.45 103.9-22.45 107.55-27.6 111.1-27.6 111.1-13.4 107.1-11.4 103.75-17.7 99.05-17.7 99.05-4.75 109.55-4.75 116.8-15.1 120.3-13.6 120.3 0.9ZM160.99-40.2L160.99-26.7 157.49-25.2 150.94-34.55 140.24-34.55 140.24-22.45 145.09-22.45 148.74-27.6 152.29-27.6 152.29-12.4 148.29-10.4 144.84-17.7 140.24-17.7 140.24-5.75 149.49-4 147.49 0 124.79 0 124.79-3.55 129.49-7.25 129.49-33.75 123.79-35.3 125.79-39.3 156.84-39.3 160.99-40.2ZM204.14-4L202.14 0 181.44 0 181.44-3.55 187.39-6.65 184.84-12.95 170.24-12.95 168.19-7.85 175.19-4 173.19 0 156.49 0 156.49-3.55 162.34-7.9 174.34-37.7 185.04-40.25 198.94-6.35 204.14-4ZM182.89-17.7L177.44-31.1 172.09-17.7 182.89-17.7ZM248.24-4L246.24 0 227.54 0 227.54-3.55 231.44-5.95 224.09-14.35 216.84-7.15 222.34-4 220.34 0 203.64 0 203.64-3.55 210.14-8.1 220.54-18.35 207.29-33.2 203.64-35.3 205.64-39.3 224.34-39.3 224.34-35.75 220.19-33.65 227.64-25.15 234.19-32.1 228.64-35.3 230.64-39.3 247.34-39.3 247.34-35.75 241.39-31.6 231.34-21.05 245.24-5.45 248.24-4Z" opacity="1" transform="matrix(1,0,0,1,0,0)" fill="#e9ecfc" class="undefined-text-0" data-fill-palette-color="primary" id="text-0"></path></svg></g></svg></g><g transform="matrix(1,0,0,1,75.54432,81.36678615671585)"><svg viewBox="0 0 244.43135999999998 36.149383008181246" height="36.149383008181246" width="244.43135999999998"><g transform="matrix(1,0,0,1,0,0)"><svg width="244.43135999999998" viewBox="4.25 -37 317.77 47" height="36.149383008181246" data-palette-color="#e9ecfc"><path d="M7.25-35.5L7.25-1.5Q7.25-0.9 6.8-0.45 6.35 0 5.75 0L5.75 0Q5.1 0 4.67-0.45 4.25-0.9 4.25-1.5L4.25-1.5 4.25-35.5Q4.25-36.1 4.7-36.55 5.15-37 5.75-37L5.75-37Q6.4-37 6.83-36.55 7.25-36.1 7.25-35.5L7.25-35.5ZM36.2-25.55L36.2-25.55Q36.85-25.55 37.27-25.1 37.7-24.65 37.7-24L37.7-24 37.7-1.5Q37.7-0.9 37.25-0.45 36.8 0 36.2 0L36.2 0Q35.5 0 35.1-0.45 34.7-0.9 34.7-1.5L34.7-1.5 34.7-7.45 35.55-7.85Q35.55-6.45 34.77-5 34-3.55 32.65-2.3 31.3-1.05 29.47-0.28 27.65 0.5 25.5 0.5L25.5 0.5Q22.15 0.5 19.47-1.25 16.8-3 15.27-6.05 13.75-9.1 13.75-12.9L13.75-12.9Q13.75-16.8 15.3-19.78 16.85-22.75 19.5-24.45 22.15-26.15 25.45-26.15L25.45-26.15Q27.6-26.15 29.47-25.4 31.35-24.65 32.75-23.35 34.15-22.05 34.95-20.38 35.75-18.7 35.75-16.9L35.75-16.9 34.7-17.65 34.7-24Q34.7-24.65 35.1-25.1 35.5-25.55 36.2-25.55ZM25.8-2.3L25.8-2.3Q28.45-2.3 30.5-3.68 32.55-5.05 33.72-7.48 34.9-9.9 34.9-12.9L34.9-12.9Q34.9-15.85 33.72-18.2 32.55-20.55 30.5-21.95 28.45-23.35 25.8-23.35L25.8-23.35Q23.2-23.35 21.12-22 19.05-20.65 17.87-18.3 16.7-15.95 16.7-12.9L16.7-12.9Q16.7-9.9 17.85-7.48 19-5.05 21.07-3.68 23.15-2.3 25.8-2.3ZM57.6-26.15L57.6-26.15Q60.9-26.15 62.87-24.83 64.84-23.5 65.72-21.23 66.59-18.95 66.59-16.2L66.59-16.2 66.59-1.5Q66.59-0.9 66.15-0.45 65.7 0 65.09 0L65.09 0Q64.4 0 64-0.45 63.6-0.9 63.6-1.5L63.6-1.5 63.6-16.05Q63.6-18.05 62.95-19.7 62.3-21.35 60.82-22.35 59.35-23.35 56.95-23.35L56.95-23.35Q54.8-23.35 52.87-22.35 50.95-21.35 49.75-19.7 48.55-18.05 48.55-16.05L48.55-16.05 48.55-1.5Q48.55-0.9 48.1-0.45 47.65 0 47.05 0L47.05 0Q46.35 0 45.95-0.45 45.55-0.9 45.55-1.5L45.55-1.5 45.55-23.9Q45.55-24.5 45.97-24.95 46.4-25.4 47.05-25.4L47.05-25.4Q47.7-25.4 48.12-24.95 48.55-24.5 48.55-23.9L48.55-23.9 48.55-19.7 47.4-17.9Q47.5-19.5 48.42-20.98 49.35-22.45 50.8-23.63 52.25-24.8 54.02-25.48 55.8-26.15 57.6-26.15ZM84.89-26.15L84.89-26.15Q87.09-26.15 88.99-25.38 90.89-24.6 92.32-23.38 93.74-22.15 94.54-20.78 95.34-19.4 95.34-18.15L95.34-18.15 94.54-19.35 94.54-24Q94.54-24.65 94.97-25.1 95.39-25.55 96.04-25.55L96.04-25.55Q96.69-25.55 97.12-25.1 97.54-24.65 97.54-24L97.54-24 97.54-2.35Q97.54 1.65 95.89 4.4 94.24 7.15 91.42 8.58 88.59 10 84.99 10L84.99 10Q83.24 10 81.32 9.55 79.39 9.1 78.02 8.4 76.64 7.7 76.44 6.95L76.44 6.95Q76.09 6.5 76.12 6.08 76.14 5.65 76.54 5.35L76.54 5.35Q76.99 5 77.57 5.28 78.14 5.55 79.24 6L79.24 6Q79.69 6.15 80.57 6.45 81.44 6.75 82.62 6.98 83.79 7.2 85.04 7.2L85.04 7.2Q89.54 7.2 92.04 4.63 94.54 2.05 94.54-2.15L94.54-2.15 94.54-6.95 95.09-6.8Q94.64-5 93.59-3.65 92.54-2.3 91.14-1.38 89.74-0.45 88.14 0.03 86.54 0.5 84.94 0.5L84.94 0.5Q81.49 0.5 78.72-1.25 75.94-3 74.34-6 72.74-9 72.74-12.85L72.74-12.85Q72.74-16.65 74.34-19.68 75.94-22.7 78.69-24.43 81.44-26.15 84.89-26.15ZM85.19-23.35L85.19-23.35Q82.49-23.35 80.32-21.98 78.14-20.6 76.92-18.23 75.69-15.85 75.69-12.85L75.69-12.85Q75.69-9.85 76.92-7.45 78.14-5.05 80.32-3.68 82.49-2.3 85.19-2.3L85.19-2.3Q87.94-2.3 90.09-3.65 92.24-5 93.49-7.38 94.74-9.75 94.74-12.85L94.74-12.85Q94.74-15.95 93.49-18.32 92.24-20.7 90.09-22.03 87.94-23.35 85.19-23.35ZM124.14-25.4L124.14-25.4Q124.79-25.4 125.22-24.95 125.64-24.5 125.64-23.9L125.64-23.9 125.64-9.8Q125.64-4.85 122.84-2.25 120.04 0.35 115.29 0.35L115.29 0.35Q110.59 0.35 107.81-2.25 105.04-4.85 105.04-9.8L105.04-9.8 105.04-23.9Q105.04-24.5 105.47-24.95 105.89-25.4 106.54-25.4L106.54-25.4Q107.19-25.4 107.62-24.95 108.04-24.5 108.04-23.9L108.04-23.9 108.04-9.8Q108.04-6.2 109.97-4.33 111.89-2.45 115.29-2.45L115.29-2.45Q118.74-2.45 120.69-4.33 122.64-6.2 122.64-9.8L122.64-9.8 122.64-23.9Q122.64-24.5 123.04-24.95 123.44-25.4 124.14-25.4ZM154.24-25.55L154.24-25.55Q154.89-25.55 155.31-25.1 155.74-24.65 155.74-24L155.74-24 155.74-1.5Q155.74-0.9 155.29-0.45 154.84 0 154.24 0L154.24 0Q153.54 0 153.14-0.45 152.74-0.9 152.74-1.5L152.74-1.5 152.74-7.45 153.59-7.85Q153.59-6.45 152.81-5 152.04-3.55 150.69-2.3 149.34-1.05 147.51-0.28 145.69 0.5 143.54 0.5L143.54 0.5Q140.19 0.5 137.51-1.25 134.84-3 133.31-6.05 131.79-9.1 131.79-12.9L131.79-12.9Q131.79-16.8 133.34-19.78 134.89-22.75 137.54-24.45 140.19-26.15 143.49-26.15L143.49-26.15Q145.64-26.15 147.51-25.4 149.39-24.65 150.79-23.35 152.19-22.05 152.99-20.38 153.79-18.7 153.79-16.9L153.79-16.9 152.74-17.65 152.74-24Q152.74-24.65 153.14-25.1 153.54-25.55 154.24-25.55ZM143.84-2.3L143.84-2.3Q146.49-2.3 148.54-3.68 150.59-5.05 151.76-7.48 152.94-9.9 152.94-12.9L152.94-12.9Q152.94-15.85 151.76-18.2 150.59-20.55 148.54-21.95 146.49-23.35 143.84-23.35L143.84-23.35Q141.24-23.35 139.16-22 137.09-20.65 135.91-18.3 134.74-15.95 134.74-12.9L134.74-12.9Q134.74-9.9 135.89-7.48 137.04-5.05 139.11-3.68 141.19-2.3 143.84-2.3ZM174.04-26.15L174.04-26.15Q176.24-26.15 178.14-25.38 180.04-24.6 181.46-23.38 182.89-22.15 183.69-20.78 184.49-19.4 184.49-18.15L184.49-18.15 183.69-19.35 183.69-24Q183.69-24.65 184.11-25.1 184.54-25.55 185.19-25.55L185.19-25.55Q185.84-25.55 186.26-25.1 186.69-24.65 186.69-24L186.69-24 186.69-2.35Q186.69 1.65 185.04 4.4 183.39 7.15 180.56 8.58 177.74 10 174.14 10L174.14 10Q172.39 10 170.46 9.55 168.54 9.1 167.16 8.4 165.79 7.7 165.59 6.95L165.59 6.95Q165.24 6.5 165.26 6.08 165.29 5.65 165.69 5.35L165.69 5.35Q166.14 5 166.71 5.28 167.29 5.55 168.39 6L168.39 6Q168.84 6.15 169.71 6.45 170.59 6.75 171.76 6.98 172.94 7.2 174.19 7.2L174.19 7.2Q178.69 7.2 181.19 4.63 183.69 2.05 183.69-2.15L183.69-2.15 183.69-6.95 184.24-6.8Q183.79-5 182.74-3.65 181.69-2.3 180.29-1.38 178.89-0.45 177.29 0.03 175.69 0.5 174.09 0.5L174.09 0.5Q170.64 0.5 167.86-1.25 165.09-3 163.49-6 161.89-9 161.89-12.85L161.89-12.85Q161.89-16.65 163.49-19.68 165.09-22.7 167.84-24.43 170.59-26.15 174.04-26.15ZM174.34-23.35L174.34-23.35Q171.64-23.35 169.46-21.98 167.29-20.6 166.06-18.23 164.84-15.85 164.84-12.85L164.84-12.85Q164.84-9.85 166.06-7.45 167.29-5.05 169.46-3.68 171.64-2.3 174.34-2.3L174.34-2.3Q177.09-2.3 179.24-3.65 181.39-5 182.64-7.38 183.89-9.75 183.89-12.85L183.89-12.85Q183.89-15.95 182.64-18.32 181.39-20.7 179.24-22.03 177.09-23.35 174.34-23.35ZM204.93 0.5L204.93 0.5Q201.08 0.5 198.13-1.15 195.18-2.8 193.53-5.75 191.88-8.7 191.88-12.65L191.88-12.65Q191.88-16.9 193.56-19.9 195.23-22.9 197.91-24.53 200.58-26.15 203.58-26.15L203.58-26.15Q205.78-26.15 207.86-25.38 209.93-24.6 211.53-23.08 213.13-21.55 214.13-19.35 215.13-17.15 215.18-14.25L215.18-14.25Q215.18-13.65 214.73-13.23 214.28-12.8 213.68-12.8L213.68-12.8 193.63-12.8 193.03-15.5 212.73-15.5 212.08-14.9 212.08-15.9Q211.83-18.25 210.53-19.9 209.23-21.55 207.41-22.4 205.58-23.25 203.58-23.25L203.58-23.25Q202.08-23.25 200.51-22.65 198.93-22.05 197.66-20.78 196.38-19.5 195.58-17.53 194.78-15.55 194.78-12.85L194.78-12.85Q194.78-9.9 195.98-7.5 197.18-5.1 199.43-3.7 201.68-2.3 204.88-2.3L204.88-2.3Q206.58-2.3 207.98-2.8 209.38-3.3 210.46-4.13 211.53-4.95 212.23-5.85L212.23-5.85Q212.78-6.3 213.28-6.3L213.28-6.3Q213.83-6.3 214.21-5.9 214.58-5.5 214.58-5L214.58-5Q214.58-4.4 214.08-3.95L214.08-3.95Q212.58-2.15 210.18-0.83 207.78 0.5 204.93 0.5ZM255.78-25.65L255.78-25.65Q256.43-25.65 256.85-25.2 257.28-24.75 257.28-24.1L257.28-24.1 257.28 8.5Q257.28 9.1 256.83 9.55 256.38 10 255.78 10L255.78 10Q255.08 10 254.68 9.55 254.28 9.1 254.28 8.5L254.28 8.5 254.28-7.45 255.13-8.15Q255.13-6.75 254.38-5.23 253.63-3.7 252.25-2.4 250.88-1.1 249.05-0.3 247.23 0.5 245.08 0.5L245.08 0.5Q241.78 0.5 239.1-1.25 236.43-3 234.88-6 233.33-9 233.33-12.85L233.33-12.85Q233.33-16.65 234.88-19.68 236.43-22.7 239.08-24.43 241.73-26.15 245.03-26.15L245.03-26.15Q247.13-26.15 248.98-25.4 250.83-24.65 252.25-23.35 253.68-22.05 254.5-20.38 255.33-18.7 255.33-16.9L255.33-16.9 254.28-17.65 254.28-24.1Q254.28-24.75 254.68-25.2 255.08-25.65 255.78-25.65ZM245.38-2.3L245.38-2.3Q248.03-2.3 250.08-3.68 252.13-5.05 253.3-7.43 254.48-9.8 254.48-12.85L254.48-12.85Q254.48-15.85 253.3-18.23 252.13-20.6 250.08-21.98 248.03-23.35 245.38-23.35L245.38-23.35Q242.78-23.35 240.7-21.98 238.63-20.6 237.45-18.23 236.28-15.85 236.28-12.85L236.28-12.85Q236.28-9.85 237.45-7.45 238.63-5.05 240.7-3.68 242.78-2.3 245.38-2.3ZM284.23-25.4L284.23-25.4Q284.88-25.4 285.3-24.95 285.73-24.5 285.73-23.9L285.73-23.9 285.73-9.8Q285.73-4.85 282.93-2.25 280.13 0.35 275.38 0.35L275.38 0.35Q270.68 0.35 267.9-2.25 265.13-4.85 265.13-9.8L265.13-9.8 265.13-23.9Q265.13-24.5 265.55-24.95 265.98-25.4 266.63-25.4L266.63-25.4Q267.28-25.4 267.7-24.95 268.13-24.5 268.13-23.9L268.13-23.9 268.13-9.8Q268.13-6.2 270.05-4.33 271.98-2.45 275.38-2.45L275.38-2.45Q278.83-2.45 280.78-4.33 282.73-6.2 282.73-9.8L282.73-9.8 282.73-23.9Q282.73-24.5 283.13-24.95 283.53-25.4 284.23-25.4ZM296.47-24.5L296.47-1.5Q296.47-0.9 296.02-0.45 295.57 0 294.97 0L294.97 0Q294.32 0 293.9-0.45 293.47-0.9 293.47-1.5L293.47-1.5 293.47-24.5Q293.47-25.1 293.9-25.55 294.32-26 294.97-26L294.97-26Q295.62-26 296.05-25.55 296.47-25.1 296.47-24.5L296.47-24.5ZM294.97-29.35L294.97-29.35Q293.92-29.35 293.4-29.83 292.87-30.3 292.87-31.2L292.87-31.2 292.87-31.7Q292.87-32.6 293.45-33.08 294.02-33.55 295.02-33.55L295.02-33.55Q295.97-33.55 296.5-33.08 297.02-32.6 297.02-31.7L297.02-31.7 297.02-31.2Q297.02-30.3 296.5-29.83 295.97-29.35 294.97-29.35ZM305.97-2.8L320.27-2.8Q320.87-2.8 321.3-2.38 321.72-1.95 321.72-1.4L321.72-1.4Q321.72-0.8 321.3-0.4 320.87 0 320.27 0L320.27 0 304.02 0Q303.37 0 302.97-0.5 302.57-1 302.57-1.45L302.57-1.45Q302.57-1.75 302.67-2.02 302.77-2.3 303.02-2.6L303.02-2.6 318.17-23.55 318.37-23.1 305.27-23.1Q304.67-23.1 304.25-23.53 303.82-23.95 303.82-24.5L303.82-24.5Q303.82-25.1 304.25-25.5 304.67-25.9 305.27-25.9L305.27-25.9 320.62-25.9Q321.17-25.9 321.6-25.45 322.02-25 322.02-24.4L322.02-24.4Q322.02-24.1 321.92-23.85 321.82-23.6 321.62-23.3L321.62-23.3 306.57-2.55 305.97-2.8Z" opacity="1" transform="matrix(1,0,0,1,0,0)" fill="#e9ecfc" class="undefined-text-1" data-fill-palette-color="secondary" id="text-1"></path></svg></g></svg></g></svg></g></svg></g><g transform="matrix(1,0,0,1,84.3750155570042,0)"><svg viewBox="0 0 226.76996888599157 226.76996888599157" height="226.76996888599157" width="226.76996888599157"><g><svg></svg></g><g id="icon-0"><svg viewBox="0 0 226.76996888599157 226.76996888599157" height="226.76996888599157" width="226.76996888599157"><g><path d="M0 113.385c0-62.621 50.764-113.385 113.385-113.385 62.621 0 113.385 50.764 113.385 113.385 0 62.621-50.764 113.385-113.385 113.385-62.621 0-113.385-50.764-113.385-113.385zM113.385 220.834c59.342 0 107.449-48.106 107.449-107.449 0-59.342-48.106-107.449-107.449-107.449-59.342 0-107.449 48.106-107.449 107.449 0 59.342 48.106 107.449 107.449 107.449z" data-fill-palette-color="accent" fill="#185359" stroke="transparent"></path><ellipse rx="112.25113459856583" ry="112.25113459856583" cx="113.38498444299579" cy="113.38498444299579" fill="#185359" stroke="transparent" stroke-width="0" fill-opacity="1" data-fill-palette-color="accent"></ellipse></g><g transform="matrix(1,0,0,1,48.28463332657809,48.28463332657809)"><svg viewBox="0 0 130.2007022328354 130.2007022328354" height="130.2007022328354" width="130.2007022328354"><g><svg xmlns="http://www.w3.org/2000/svg" xmlns:xlink="http://www.w3.org/1999/xlink" version="1.1" x="0" y="0" viewBox="2 2 60 60" style="enable-background:new 0 0 64 64;" xml:space="preserve" height="130.2007022328354" width="130.2007022328354" class="icon-li-0" data-fill-palette-color="quaternary" id="li-0"><path d="M16 45c-1.654 0-3-1.346-3-3h-2c0 1.654-1.346 3-3 3v2c1.654 0 3 1.346 3 3h2c0-1.654 1.346-3 3-3V45zM12 47.031c-0.292-0.393-0.638-0.739-1.031-1.031 0.393-0.292 0.739-0.638 1.031-1.031 0.292 0.393 0.638 0.739 1.031 1.031C12.638 46.292 12.292 46.638 12 47.031z" fill="#e9ecfc" data-fill-palette-color="quaternary"></path><path d="M62 46h-2V19c0-9.374-7.627-17-17.003-17H42.5C32.851 2 25 9.851 25 19.5V27c0 0.552 0.448 1 1 1h3v2c0 0.552 0.448 1 1 1h2.829c-0.413 1.164-1.525 2-2.829 2-0.552 0-1 0.448-1 1v1c0 2.757 2.243 5 5 5h10v6H31c-8.271 0-15 6.729-15 15v1h2v-1c0-7.168 5.832-13 13-13h13.42l7.712 13.496C52.311 61.809 52.643 62 53 62c0.019 0 0.038 0 0.057-0.001 0.379-0.022 0.712-0.256 0.862-0.604L59.659 48H62V46zM45 38H34c-1.654 0-3-1.346-3-3v-0.101c2.279-0.464 4-2.485 4-4.899 0-0.552-0.448-1-1-1h-3v-2c0-0.552-0.448-1-1-1h-3v-6.5C27 10.953 33.953 4 42.5 4h0.497C51.27 4 58 10.729 58 19v27H46v-7C46 38.448 45.552 38 45 38zM52.872 58.76L46.723 48h10.76L52.872 58.76z" fill="#e9ecfc" data-fill-palette-color="quaternary"></path><path d="M26.901 34.433c0.167-0.346 0.12-0.758-0.121-1.058L23 28.649V18c0-2.757-2.243-5-5-5H7c-2.757 0-5 2.243-5 5v12c0 2.757 2.243 5 5 5h19C26.384 35 26.735 34.78 26.901 34.433zM7 33c-1.654 0-3-1.346-3-3V18c0-1.654 1.346-3 3-3h11c1.654 0 3 1.346 3 3v11c0 0.227 0.077 0.447 0.219 0.625l2.7 3.375H7z" fill="#e9ecfc" data-fill-palette-color="quaternary"></path><path d="M12.5 18C8.916 18 6 20.691 6 24s2.916 6 6.5 6 6.5-2.691 6.5-6S16.084 18 12.5 18zM16.84 23h-1.872c-0.042-0.712-0.141-1.643-0.363-2.514C15.7 21.007 16.521 21.909 16.84 23zM12.038 25h0.924c-0.077 1.155-0.271 2.037-0.462 2.559C12.309 27.037 12.115 26.155 12.038 25zM12.038 23c0.077-1.155 0.271-2.037 0.462-2.559 0.191 0.522 0.385 1.404 0.462 2.559H12.038zM10.395 20.486c-0.222 0.87-0.321 1.802-0.363 2.514H8.16C8.479 21.909 9.3 21.007 10.395 20.486zM8.16 25h1.872c0.042 0.712 0.141 1.643 0.363 2.514C9.3 26.993 8.479 26.091 8.16 25zM14.605 27.514c0.222-0.87 0.321-1.802 0.363-2.514h1.872C16.521 26.091 15.7 26.993 14.605 27.514z" fill="#e9ecfc" data-fill-palette-color="quaternary"></path><path d="M36 21c-1.654 0-3-1.346-3-3h-2c0 2.757 2.243 5 5 5s5-2.243 5-5h-2C39 19.654 37.654 21 36 21z" fill="#e9ecfc" data-fill-palette-color="quaternary"></path><rect x="41" y="50" width="2" height="2" fill="#e9ecfc" data-fill-palette-color="quaternary"></rect><rect x="37" y="50" width="2" height="2" fill="#e9ecfc" data-fill-palette-color="quaternary"></rect><rect x="33" y="50" width="2" height="2" fill="#e9ecfc" data-fill-palette-color="quaternary"></rect></svg></g></svg></g></svg></g></svg></g><g></g></svg></g></svg><rect width="260.4723273453604" height="247.2" fill="none" stroke="none" visibility="hidden"></rect></g></svg></g></svg>